# xmcd
# 
# Track frame offsets:
#     150
#     13444
#     39104
#     76809
#     98596
#     114856
#     138228
#     167963
#     194070
#     225988
#     261458
#     288740
# 
# Disc length: 4246
# 
# Revision: 0
# Processed by: cddbd v1.5.2PL0 Copyright (c) Steve Scherf et al.
# Submitted via: BonkEnc v1.0
# 
DISCID=9f10940c
DTITLE=1 Giant Leap - 1 Giant Leap
DYEAR=2001
DGENRE=World Music
TTITLE0=01 - Dunya Salam (feat. Baba Maal)
TTITLE1=02  - My Culture (feat. Robbie Williams and Maxi Jazz)
TTITLE2=03 - The Way You Dream (Feat. Michael Stipe and Asha Bhosle)
TTITLE3=04 - Ma' Africa (feat. The Mahotella Queens and Ulali)
TTITLE4=05 - Braided Hair (feat. Speech and Neneh Cherry)
TTITLE5=06 - Ta Moko (feat. Whirimako Black)
TTITLE6=07 - Bushes (feat. Baaba Maal)
TTITLE7=08 - Passion ( feat. Michael Franti)
TTITLE8=09 - Daphne (feat. Eddie Reader and Kurt Vonnegut)
TTITLE9=10 - All alone (feat. Eilean Shona)
TTITLE10=11 - Racing Away (feat. Grant Lee Phillips and Horace Andy)
TTITLE11=12 - Ghosts (feat. Eddie Reader)
EXTD=YEAR: 2001
EXTT0=
EXTT1=
EXTT2=
EXTT3=
EXTT4=
EXTT5=
EXTT6=
EXTT7=
EXTT8=
EXTT9=
EXTT10=
EXTT11=
PLAYORDER=
